HIERARCHY
ROOT Hips
{
	OFFSET 0.00000 0.00000 0.00000
	CHANNELS 6 Xposition Yposition Zposition Zrotation Yrotation Xrotation 
	JOINT LHipJoint
	{
		OFFSET 0 0 0
		CHANNELS 3 Zrotation Yrotation Xrotation
		JOINT LeftUpLeg
		{
			OFFSET 1.75344 -1.53157 0.77399
			CHANNELS 3 Zrotation Yrotation Xrotation
			JOINT LeftLeg
			{
				OFFSET 2.25415 -6.19323 0.00000
				CHANNELS 3 Zrotation Yrotation Xrotation
				JOINT LeftFoot
				{
					OFFSET 2.30342 -6.32861 0.00000
					CHANNELS 3 Zrotation Yrotation Xrotation
					JOINT LeftToeBase
					{
						OFFSET 0.10958 -0.30108 1.49206
						CHANNELS 3 Zrotation Yrotation Xrotation
						End Site
						{
							OFFSET 0.00000 -0.00000 0.77783
						}
					}
				}
			}
		}
	}
	JOINT RHipJoint
	{
		OFFSET 0 0 0
		CHANNELS 3 Zrotation Yrotation Xrotation
		JOINT RightUpLeg
		{
			OFFSET -1.81912 -1.53156 0.77399
			CHANNELS 3 Zrotation Yrotation Xrotation
			JOINT RightLeg
			{
				OFFSET -2.22882 -6.12365 0.00000
				CHANNELS 3 Zrotation Yrotation Xrotation
				JOINT RightFoot
				{
					OFFSET -2.21943 -6.09785 0.00000
					CHANNELS 3 Zrotation Yrotation Xrotation
					JOINT RightToeBase
					{
						OFFSET -0.18931 -0.52012 1.59379
						CHANNELS 3 Zrotation Yrotation Xrotation
						End Site
						{
							OFFSET -0.00000 -0.00000 0.84686
						}
					}
				}
			}
		}
	}
	JOINT LowerBack
	{
		OFFSET 0 0 0
		CHANNELS 3 Zrotation Yrotation Xrotation
		JOINT Spine
		{
			OFFSET -0.00200 1.66634 -0.14248
			CHANNELS 3 Zrotation Yrotation Xrotation
			JOINT Spine1
			{
				OFFSET -0.00875 1.64542 0.09514
				CHANNELS 3 Zrotation Yrotation Xrotation
				JOINT Neck
				{
					OFFSET 0 0 0
					CHANNELS 3 Zrotation Yrotation Xrotation
					JOINT Neck1
					{
						OFFSET 0.02257 1.59605 0.00839
						CHANNELS 3 Zrotation Yrotation Xrotation
						JOINT Head
						{
							OFFSET -0.10214 1.57530 -0.23335
							CHANNELS 3 Zrotation Yrotation Xrotation
							End Site
							{
								OFFSET -0.03588 1.60717 -0.08062
							}
						}
					}
				}
				JOINT LeftShoulder
				{
					OFFSET 0 0 0
					CHANNELS 3 Zrotation Yrotation Xrotation
					JOINT LeftArm
					{
						OFFSET 2.54983 1.10186 0.40078
						CHANNELS 3 Zrotation Yrotation Xrotation
						JOINT LeftForeArm
						{
							OFFSET 4.28840 -0.00000 0.00000
							CHANNELS 3 Zrotation Yrotation Xrotation
							JOINT LeftHand
							{
								OFFSET 3.06552 -0.00000 -0.00000
								CHANNELS 3 Zrotation Yrotation Xrotation
								JOINT LeftFingerBase
								{
									OFFSET 0 0 0
									CHANNELS 3 Zrotation Yrotation Xrotation
									JOINT LeftHandIndex1
									{
										OFFSET 0.75304 -0.00000 0.00000
										CHANNELS 3 Zrotation Yrotation Xrotation
										End Site
										{
											OFFSET 0.60712 -0.00000 0.00000
										}
									}
								}
								JOINT LThumb
								{
									OFFSET 0 0 0
									CHANNELS 3 Zrotation Yrotation Xrotation
									End Site
									{
										OFFSET 0.61639 -0.00000 0.61639
									}
								}
							}
						}
					}
				}
				JOINT RightShoulder
				{
					OFFSET 0 0 0
					CHANNELS 3 Zrotation Yrotation Xrotation
					JOINT RightArm
					{
						OFFSET -2.60909 1.35448 0.21802
						CHANNELS 3 Zrotation Yrotation Xrotation
						JOINT RightForeArm
						{
							OFFSET -4.52172 -0.00000 -0.00000
							CHANNELS 3 Zrotation Yrotation Xrotation
							JOINT RightHand
							{
								OFFSET -2.89140 -0.00000 0.00000
								CHANNELS 3 Zrotation Yrotation Xrotation
								JOINT RightFingerBase
								{
									OFFSET 0 0 0
									CHANNELS 3 Zrotation Yrotation Xrotation
									JOINT RightHandIndex1
									{
										OFFSET -0.68054 -0.00000 0.00000
										CHANNELS 3 Zrotation Yrotation Xrotation
										End Site
										{
											OFFSET -0.54867 -0.00000 0.00000
										}
									}
								}
								JOINT RThumb
								{
									OFFSET 0 0 0
									CHANNELS 3 Zrotation Yrotation Xrotation
									End Site
									{
										OFFSET -0.55705 -0.00000 0.55705
									}
								}
							}
						}
					}
				}
			}
		}
	}
}
MOTION
Frames: 16
Frame Time: 0.125
0.00 0.00 0.00 0 0 0 0 0 0 -21 0 0 0 0 0 0 0 0 0 0 0 0 0 0 21 0 0 0 0 0 0 0 0 0 0 0 0 0 0 0 0 0 0 0 0 0 0 -16 0 0 21 0 0 11 0 0 0 -8 0 0 0 0 0 0 0 0 0 0 0 0 0 0 0 0 0 0 0 0 8 0 0 0 0 0 0 0 0 0 0 0 0 0 0 0 0 0
0.00 0.00 0.00 -178.5060 -1.6283 184.5820 0.0000 0.0000 0.0000 -20.2252 -13.4109 -17.0281 4.3091 12.5608 37.7458 2.4225 -3.9804 -28.5068 2.1629 -9.1974 -26.4146 0.0000 0.0000 0.0000 24.7677 11.4946 -12.8187 -3.3414 -11.2282 33.0535 -1.1375 -12.3139 -28.0124 -0.0509 1.4555 -4.0032 2.3957 1.0577 12.8093 0.1603 1.8320 -3.2104 -1.5770 0.7224 -10.6264 -6.9809 -2.8236 -7.1369 7.1552 -3.5219 2.9554 3.4722 -1.6562 2.5323 0.0000 0.0000 0.0000 -86.3854 11.1317 25.5821 16.3166 -25.9481 -3.7834 -0.0000 -0.0000 12.4793 14.7860 -41.5085 -9.9222 -7.1250 0.0000 -0.0000 -10.7792 -11.8315 12.9664 0.0000 0.0000 0.0000 83.4860 -13.1479 41.3767 -18.4352 28.7108 -4.7564 0.0000 0.0000 25.6993 -31.1090 -52.9869 25.7274 7.1250 -0.0000 -0.0000 64.7216 -83.6328 -58.7998
0.00 0.00 0.00 -178.3500 -0.3525 188.0780 0.0000 0.0000 0.0000 -18.7157 -13.3636 -27.9298 8.1905 16.2576 53.2458 4.0000 -5.9624 -36.7380 2.4722 -9.7872 -28.2904 0.0000 0.0000 0.0000 23.7573 15.3513 -23.6867 -7.4374 -15.6894 50.5098 -2.7698 -10.1573 -36.2569 -0.0092 0.6199 -1.7034 2.0341 1.1256 14.9688 0.1413 1.9086 -2.8083 -1.4654 0.7681 -11.4569 -6.9997 -2.5862 -7.0367 7.9353 -3.1735 -1.4118 3.7441 -1.5330 1.0608 -0.0000 -0.0000 0.0000 -83.9725 17.1282 23.4980 16.9427 -26.7822 -4.0615 -0.0000 -0.0000 9.8253 12.5311 -41.9441 -8.4502 -7.1250 0.0000 -0.0000 -11.9614 -11.8428 14.4448 -0.0000 -0.0000 0.0000 82.6703 -16.6744 39.3643 -16.8445 26.6523 -4.0173 0.0000 0.0000 31.0159 -37.3582 -54.8160 31.9614 7.1250 -0.0000 -0.0000 96.5859 85.8107 100.7760
0.00 0.00 0.00 -177.8510 1.1652 199.9280 0.0000 0.0000 0.0000 -14.9137 -14.8693 -46.3683 12.4672 18.5812 67.4621 4.0593 -8.6633 -36.7242 1.4488 -7.6087 -21.5316 0.0000 0.0000 0.0000 20.8407 16.8837 -44.0738 -12.3006 -18.5149 66.9385 -2.7993 -6.1002 -34.1854 -0.0741 1.7566 -4.8335 1.6387 1.6460 17.6047 0.2238 2.6145 -3.3351 -1.4375 1.0895 -13.6237 -7.0699 -2.3630 -9.5869 8.0882 -3.4585 -12.5644 3.9302 -2.1763 -2.1582 0.0000 0.0000 0.0000 -86.3762 24.1694 18.2120 16.7579 -26.5375 -3.9786 -0.0000 -0.0000 10.7229 1.6762 -40.3426 -1.0853 -7.1250 0.0000 -0.0000 -17.1703 -8.8109 20.4676 0.0000 0.0000 0.0000 85.8395 -22.5296 25.6580 -17.5905 27.6297 -4.3577 0.0000 0.0000 19.0984 -8.5569 -50.9390 6.6638 7.1250 -0.0000 -0.0000 61.5173 -73.6925 -45.7653
0.00 0.00 0.00 -179.0160 -0.6793 203.4270 0.0000 0.0000 0.0000 -14.2202 -14.9854 -56.6169 16.2327 19.6563 78.9243 3.7435 -12.9147 -35.0806 1.0354 -6.4718 -18.1597 0.0000 0.0000 0.0000 18.9540 14.5193 -55.1458 -16.5940 -19.7196 79.9965 -3.0336 -3.4864 -34.2874 -0.0046 0.4403 -1.2099 1.3319 1.3934 19.4610 -0.0083 2.1429 -2.1309 -1.4181 0.8713 -13.3368 -7.1031 -2.0845 -10.1737 8.3060 -3.8799 -19.2428 3.8589 -2.9015 -3.8273 -0.0000 0.0000 0.0000 -82.7149 -5.4978 13.1145 16.0367 -25.5704 -3.6618 -0.0000 -0.0000 15.1878 5.5275 -43.4609 -3.8083 -7.1250 0.0000 -0.0000 -15.5486 -12.2329 19.1244 -0.0000 0.0000 0.0000 77.1978 7.7148 13.7287 -17.0196 26.8836 -4.0962 0.0000 0.0000 19.7183 -9.2080 -54.9861 7.5629 7.1250 -0.0000 -0.0000 75.2983 -75.1408 -59.9769
0.00 0.00 0.00 -179.0360 -1.1342 202.5650 0.0000 0.0000 0.0000 -13.8243 -14.7160 -56.0899 17.0544 19.7907 81.3587 3.2724 -13.0761 -32.7442 0.7995 -5.7071 -15.9369 0.0000 0.0000 0.0000 19.1290 16.6170 -52.8831 -17.0565 -19.7910 81.3650 -2.7633 -6.8048 -34.3433 -0.1941 2.8374 -7.8265 1.4887 1.4989 19.8959 0.0404 2.3360 -2.2115 -1.5280 0.9430 -13.6768 -6.7400 -2.0522 -10.1135 6.5736 -3.7068 -17.1739 3.1906 -2.5912 -3.2765 0.0000 0.0000 0.0000 -64.2571 -35.2848 9.4154 17.3822 -27.3588 -4.2615 -0.0000 -0.0000 10.4534 6.8312 -44.3458 -4.7865 -7.1250 0.0000 -0.0000 -15.0264 -13.2549 18.6395 0.0000 0.0000 0.0000 58.1018 40.9139 8.5457 -24.5892 35.7812 -8.0485 0.0000 -0.0000 -9.9641 -5.5652 -67.5433 5.1455 7.1250 -0.0000 -0.0000 102.4419 73.1790 120.1128
0.00 0.00 0.00 -180.5350 -2.9602 201.1170 0.0000 0.0000 0.0000 -17.4923 -13.7075 -42.3672 12.0063 18.3933 66.0087 2.6358 -14.0398 -29.4528 0.8401 -5.8467 -16.3403 0.0000 0.0000 0.0000 20.7190 12.6874 -39.5871 -12.0266 -18.4019 66.0731 -2.2911 -8.2199 -32.4577 -0.3671 3.8920 -10.7730 1.7203 1.8472 15.1182 -0.3426 2.7792 -3.5576 -2.0575 1.1583 -12.3528 -4.7400 -1.1835 -10.1257 2.2419 -2.6301 -14.0791 1.5469 -1.8111 -2.7325 -0.0000 0.0000 0.0000 -34.8573 -38.5608 26.1956 31.6301 -42.2503 -12.4914 -0.0000 0.0000 -2.7301 0.3460 -47.3893 -0.2546 -7.1250 0.0000 -0.0000 -18.3109 -15.3792 23.5492 -0.0000 0.0000 0.0000 21.5288 53.3093 -4.3466 -32.6503 43.0595 -13.1827 0.0000 -0.0000 -13.2584 -8.4881 -66.9386 7.8185 7.1250 -0.0000 -0.0000 102.7680 73.9528 119.5255
0.00 0.00 0.00 -180.9190 -6.1694 193.9420 0.0000 0.0000 0.0000 -19.9658 -9.6038 -23.9869 7.4886 15.7299 50.6988 0.4819 -12.4865 -14.1586 1.1224 -6.7298 -18.9173 0.0000 0.0000 0.0000 22.9816 4.7865 -21.6966 -7.3005 -15.5798 50.0021 -0.3368 -8.9179 -17.6131 -0.3956 4.0384 -11.1846 2.4324 2.6545 13.0038 -0.5224 3.9210 -4.6698 -2.8499 1.6195 -12.2447 -3.1819 -0.9344 -6.6785 0.8657 -1.3799 -5.6946 0.7701 -0.7822 -0.6227 -0.0000 -0.0000 0.0000 -39.1874 -35.4261 48.2565 34.6621 -44.5693 -14.5757 -0.0000 -0.0000 0.3762 -7.4565 -46.5487 5.4276 -7.1250 0.0000 -0.0000 -21.6998 -14.0240 28.1085 -0.0000 -0.0000 0.0000 17.7724 43.3177 16.8605 -35.4710 45.1455 -15.1463 0.0000 -0.0000 -3.6782 6.6443 -62.2644 -5.8866 7.1250 -0.0000 -0.0000 80.5159 69.9673 100.9552
0.00 0.00 0.00 -181.2290 -10.2731 189.0120 0.0000 0.0000 0.0000 -20.5721 -9.8289 -13.4424 5.2359 13.6447 41.8323 -0.0679 -5.3597 4.8527 0.9691 -6.2676 -17.5628 0.0000 0.0000 0.0000 23.6284 3.6805 -10.5555 -4.8852 -13.2533 40.3242 0.4942 -14.1478 2.1914 -0.3741 3.9282 -10.8748 2.3521 2.8225 10.5170 -0.5015 4.0389 -5.1725 -2.6645 1.6957 -11.3152 -1.7109 -0.5028 -3.5613 0.4307 -0.6064 1.3457 0.4048 -0.3083 1.0108 -0.0000 -0.0000 0.0000 -51.4119 -31.2671 57.9393 30.7575 -41.5339 -11.9087 -0.0000 -0.0000 6.0014 -7.4616 -45.6680 5.3520 -7.1250 0.0000 -0.0000 -21.6753 -13.1932 27.8503 -0.0000 -0.0000 0.0000 22.7501 34.9214 33.7312 -35.4989 45.1651 -15.1660 0.0000 0.0000 0.6002 7.2391 -61.4100 -6.3642 7.1250 -0.0000 -0.0000 98.6808 -69.7778 -77.9209
0.00 0.00 0.00 -182.2080 -17.6682 185.3230 0.0000 0.0000 0.0000 -22.0905 -13.2546 -5.3858 3.2355 11.0669 32.5058 1.5083 7.5847 21.9776 0.1099 -2.1372 -5.8849 0.0000 0.0000 0.0000 23.7646 6.8743 -3.5362 -3.6423 -11.6685 34.5692 -1.1498 -21.5929 22.9136 -0.4224 -4.1716 11.5600 1.1617 2.2849 8.9113 -0.7063 3.0889 -4.9148 -1.9435 1.3494 -10.1665 -1.3328 0.3436 -3.5955 0.5576 0.4531 6.3273 0.4216 0.1888 2.6191 -0.0000 0.0000 0.0000 -67.6944 -24.0805 57.7307 25.0465 -36.2515 -8.3174 -0.0000 -0.0000 9.4213 -10.5896 -43.1797 7.2904 -7.1250 0.0000 -0.0000 -23.0418 -10.7548 29.1554 -0.0000 0.0000 0.0000 27.5201 21.7461 46.9378 -37.1443 46.2840 -16.3442 0.0000 0.0000 6.5458 6.4757 -58.5033 -5.5280 7.1250 -0.0000 -0.0000 90.6580 -70.0678 -69.4397
0.00 0.00 0.00 -181.3500 -35.6032 185.4990 0.0000 0.0000 0.0000 -23.8147 -14.3563 -9.2201 1.3244 7.2882 20.5719 -0.3550 23.1789 13.6878 0.2138 2.9771 8.2149 0.0000 0.0000 0.0000 23.6453 14.7843 -6.6709 -2.2057 -9.2819 26.6813 -1.5343 -20.8666 24.8644 -0.1181 2.2157 -6.1020 3.0359 0.7464 8.5611 -1.0251 1.2352 -4.9672 -3.0140 0.3187 -10.0459 0.9044 2.6603 -7.9502 -2.1240 3.6358 9.2005 -0.6486 1.6875 4.5481 0.0000 0.0000 0.0000 -86.1813 -13.2671 46.9291 13.9409 -22.6502 -2.8053 -0.0000 -0.0000 44.3835 -17.4560 -44.1069 12.3451 -7.1250 0.0000 -0.0000 -26.0348 -11.6809 34.0757 0.0000 0.0000 0.0000 35.5044 -8.8081 62.8781 -30.9303 41.6776 -12.0235 0.0000 0.0000 18.1275 2.3328 -58.4047 -1.9873 7.1250 -0.0000 -0.0000 89.3788 -71.4339 -69.7201
0.00 0.00 0.00 -180.9620 -42.7041 185.1010 0.0000 0.0000 0.0000 -25.7304 -17.6087 -8.5315 1.0043 6.3770 17.8822 -3.1552 30.1660 -5.4544 4.8627 13.2275 40.2262 0.0000 0.0000 0.0000 21.7499 22.4538 -4.9983 -1.4060 -7.5002 21.2059 -0.3703 -27.1640 21.3764 -0.0127 -0.7267 1.9971 3.7183 0.0220 9.3936 -0.7593 0.4214 -4.7832 -2.9860 -0.1082 -10.4020 2.3597 3.8604 -10.2123 -3.2771 5.2137 11.0955 -1.0150 2.4053 5.1614 -0.0000 0.0000 0.0000 -87.5954 -7.6453 51.0637 13.4283 -21.9115 -2.6110 -0.0000 -0.0000 48.0267 -17.1800 -42.2537 11.7439 -7.1250 0.0000 -0.0000 -25.9871 -9.9460 33.3958 -0.0000 0.0000 0.0000 38.6346 -19.1724 70.5721 -25.4500 36.6604 -8.5572 0.0000 0.0000 22.9632 3.8545 -57.7184 -3.2601 7.1250 -0.0000 -0.0000 87.7513 -70.8884 -67.3646
0.00 0.00 0.00 -163.8300 -71.3205 166.5030 0.0000 0.0000 0.0000 -25.5442 -14.4340 -5.6388 1.1228 6.7307 18.9199 -3.0157 29.6780 -4.7687 4.1465 12.3528 36.9917 0.0000 0.0000 0.0000 22.3498 30.6281 -0.2658 -0.8225 -5.7866 16.1664 0.4568 -28.1177 17.1217 -0.2011 -2.8877 7.9662 1.1124 -1.3926 7.8491 2.4153 -1.6070 -4.7199 2.2078 -0.7917 -9.3922 0.8433 2.6411 -10.4476 0.0898 3.3274 14.4573 0.1611 1.6203 6.1144 0.0000 -0.0000 0.0000 -86.7271 7.0153 54.8987 14.6181 -23.6114 -3.0713 -0.0000 -0.0000 45.9193 -26.5763 -32.5602 15.0682 -7.1250 0.0000 -0.0000 -30.8963 -1.8731 37.8448 0.0000 -0.0000 0.0000 64.4043 -53.9965 67.9477 -18.5301 28.8306 -4.8021 0.0000 0.0000 36.2161 9.4863 -47.7413 -7.0501 7.1250 -0.0000 -0.0000 66.5325 -66.1264 -41.0368
0.00 0.00 0.00 -98.4756 -80.3417 100.2460 0.0000 0.0000 0.0000 -23.9092 -7.4531 -11.2681 3.6830 11.7261 34.7698 -0.3530 10.5572 -5.3996 0.2099 -2.9496 -8.1385 0.0000 0.0000 0.0000 25.3138 20.3108 -2.1410 -1.6823 -8.1703 23.2326 -0.1822 -10.7459 10.0917 -0.1500 2.4954 -6.8768 -0.6064 -3.5864 9.2354 3.5620 -4.6606 -4.6449 4.9829 -2.1096 -9.8096 -0.1030 0.8785 -8.6304 2.2953 0.8410 11.5120 0.7810 0.5260 4.8619 -0.0000 0.0000 0.0000 -85.6206 10.8952 44.0748 13.5475 -22.0842 -2.6556 -0.0000 -0.0000 49.8749 -24.4005 -30.6812 13.0327 -7.1250 0.0000 -0.0000 -30.1671 0.1494 35.4512 -0.0000 0.0000 0.0000 77.2012 -54.1212 67.3718 -18.9192 29.3181 -4.9912 0.0000 0.0000 33.0038 9.3470 -48.0199 -6.9760 7.1250 -0.0000 -0.0000 66.9801 -66.2977 -41.6396
0.00 0.00 0.00 -75.7543 -77.6722 77.0712 0.0000 0.0000 0.0000 -21.0678 -9.6129 -13.6701 5.6281 14.0580 43.4701 1.0214 7.1579 -22.9557 0.1209 -2.2414 -6.1733 0.0000 0.0000 0.0000 28.2952 15.2111 -5.5135 -2.8492 -10.4468 30.4361 -0.0587 -5.0422 -8.8703 -1.4735 7.6705 -21.7175 0.1879 -3.5546 10.3614 4.1725 -4.4465 -4.0764 5.2236 -2.0361 -9.8791 -1.1266 -0.2254 -8.5440 3.2500 -0.5558 9.6505 1.1459 -0.1454 4.2980 0.0000 0.0000 0.0000 -86.5802 11.2627 39.5918 13.0994 -21.4327 -2.4895 -0.0000 -0.0000 52.0819 -23.2355 -30.2510 12.2047 -7.1250 0.0000 -0.0000 -29.6926 0.6862 34.3705 0.0000 0.0000 0.0000 78.6091 -49.2793 64.9239 -18.2750 28.5078 -4.6797 0.0000 0.0000 33.0133 6.7575 -44.6658 -4.7615 7.1250 -0.0000 -0.0000 58.6026 -65.3893 -33.7726
0.00 0.00 0.00 -58.2917 -76.3101 59.6580 0.0000 0.0000 0.0000 -18.8187 -12.7376 -17.9625 8.3659 16.3819 53.8702 4.1694 -0.0506 -38.8124 0.0396 -1.2837 -3.5298 0.0000 0.0000 0.0000 29.5330 10.3859 -10.9208 -4.5694 -12.8818 38.9276 -1.9581 -6.0367 -29.1580 -1.7732 8.3768 -23.8644 -0.6572 -2.3916 11.2155 3.5401 -3.0207 -4.1984 4.8217 -1.2809 -10.6239 -2.2299 -2.2881 -7.1464 4.0881 -3.2055 7.0611 1.5780 -1.4851 3.6964 0.0000 -0.0000 0.0000 -88.0463 13.9369 31.7692 13.3424 -21.7868 -2.5790 -0.0000 -0.0000 47.3939 -25.1937 -28.4325 12.6249 -7.1250 0.0000 -0.0000 -30.8118 2.0956 35.3246 0.0000 -0.0000 0.0000 77.0811 -41.0279 60.0518 -16.8304 26.6337 -4.0110 0.0000 0.0000 34.2345 4.0232 -54.8192 -3.2901 7.1250 -0.0000 -0.0000 79.6872 -70.4103 -58.6163
